<svg width="22" height="22" viewBox="0 0 22 22" fill="none" xmlns="http://www.w3.org/2000/svg">
<g id="Icon">
<path d="M11.4445 19C15.8627 19 19.4445 15.4183 19.4445 11C19.4445 6.58172 15.8627 3 11.4445 3C7.02618 3 3.44446 6.58172 3.44446 11C3.44446 15.4183 7.02618 19 11.4445 19Z" fill="#039855" fill-opacity="0.6"/>
<path d="M11.4445 14C13.1013 14 14.4445 12.6569 14.4445 11C14.4445 9.34315 13.1013 8 11.4445 8C9.7876 8 8.44446 9.34315 8.44446 11C8.44446 12.6569 9.7876 14 11.4445 14Z" fill="#039855" fill-opacity="0.6"/>
<path d="M19.4445 11C19.4445 15.4183 15.8627 19 11.4445 19M19.4445 11C19.4445 6.58172 15.8627 3 11.4445 3M19.4445 11H21.4445M11.4445 19C7.02618 19 3.44446 15.4183 3.44446 11M11.4445 19V21M3.44446 11C3.44446 6.58172 7.02618 3 11.4445 3M3.44446 11H1.44446M11.4445 3V1M14.4445 11C14.4445 12.6569 13.1013 14 11.4445 14C9.7876 14 8.44446 12.6569 8.44446 11C8.44446 9.34315 9.7876 8 11.4445 8C13.1013 8 14.4445 9.34315 14.4445 11Z" stroke="#039855" stroke-linecap="round" stroke-linejoin="round"/>
</g>
</svg>
