<svg width="25" height="24" viewBox="0 0 25 24" fill="none" xmlns="http://www.w3.org/2000/svg">
<g id="bell-01">
<path id="Icon" d="M9.74128 21C10.4464 21.6224 11.3727 22 12.3871 22C13.4016 22 14.3278 21.6224 15.0329 21M18.3871 8C18.3871 6.4087 17.755 4.88258 16.6297 3.75736C15.5045 2.63214 13.9784 2 12.3871 2C10.7958 2 9.26968 2.63214 8.14446 3.75736C7.01924 4.88258 6.3871 6.4087 6.3871 8C6.3871 11.0902 5.60757 13.206 4.73677 14.6054C4.00223 15.7859 3.63496 16.3761 3.64843 16.5408C3.66334 16.7231 3.70196 16.7926 3.84888 16.9016C3.98156 17 4.57969 17 5.77596 17H18.9982C20.1945 17 20.7926 17 20.9253 16.9016C21.0722 16.7926 21.1109 16.7231 21.1258 16.5408C21.1392 16.3761 20.772 15.7859 20.0374 14.6054C19.1666 13.206 18.3871 11.0902 18.3871 8Z" stroke="#27272A" stroke-width="2" stroke-linecap="round" stroke-linejoin="round"/>
</g>
</svg>
