<svg width="45" height="46" viewBox="0 0 45 46" fill="none" xmlns="http://www.w3.org/2000/svg">
<g id="Cup Logo">
<path id="Line 1" d="M4.36682 21.646L34.1861 21.646" stroke="#7F56D9" stroke-width="1.5" stroke-linecap="round"/>
<path id="Line 2" d="M1.48093 45.001L37.0717 45.0026" stroke="#7F56D9" stroke-width="1.5" stroke-linecap="round"/>
<g id="Ellipse 1">
<mask id="path-3-inside-1_146_8" fill="white">
<path d="M39.5757 21.646C40.2203 21.646 40.8586 21.7957 41.4542 22.0865C42.0497 22.3773 42.5908 22.8035 43.0467 23.3409C43.5025 23.8782 43.864 24.5161 44.1107 25.2182C44.3574 25.9202 44.4844 26.6727 44.4844 27.4326C44.4844 28.1925 44.3574 28.945 44.1107 29.647C43.864 30.3491 43.5025 30.987 43.0467 31.5244C42.5908 32.0617 42.0497 32.4879 41.4542 32.7787C40.8586 33.0695 40.2203 33.2192 39.5757 33.2192L39.5757 31.5411C40.0334 31.5411 40.4865 31.4348 40.9094 31.2284C41.3322 31.0219 41.7164 30.7193 42.0401 30.3377C42.3637 29.9562 42.6204 29.5033 42.7956 29.0049C42.9707 28.5064 43.0609 27.9721 43.0609 27.4326C43.0609 26.8931 42.9707 26.3588 42.7956 25.8604C42.6204 25.3619 42.3637 24.909 42.0401 24.5275C41.7164 24.146 41.3322 23.8433 40.9094 23.6369C40.4866 23.4304 40.0334 23.3241 39.5757 23.3241L39.5757 21.646Z"/>
</mask>
<path d="M39.5757 21.646C40.2203 21.646 40.8586 21.7957 41.4542 22.0865C42.0497 22.3773 42.5908 22.8035 43.0467 23.3409C43.5025 23.8782 43.864 24.5161 44.1107 25.2182C44.3574 25.9202 44.4844 26.6727 44.4844 27.4326C44.4844 28.1925 44.3574 28.945 44.1107 29.647C43.864 30.3491 43.5025 30.987 43.0467 31.5244C42.5908 32.0617 42.0497 32.4879 41.4542 32.7787C40.8586 33.0695 40.2203 33.2192 39.5757 33.2192L39.5757 31.5411C40.0334 31.5411 40.4865 31.4348 40.9094 31.2284C41.3322 31.0219 41.7164 30.7193 42.0401 30.3377C42.3637 29.9562 42.6204 29.5033 42.7956 29.0049C42.9707 28.5064 43.0609 27.9721 43.0609 27.4326C43.0609 26.8931 42.9707 26.3588 42.7956 25.8604C42.6204 25.3619 42.3637 24.909 42.0401 24.5275C41.7164 24.146 41.3322 23.8433 40.9094 23.6369C40.4866 23.4304 40.0334 23.3241 39.5757 23.3241L39.5757 21.646Z" fill="#7F56D9" stroke="#7F56D9" stroke-width="2" stroke-linecap="round" mask="url(#path-3-inside-1_146_8)"/>
</g>
<ellipse id="Ellipse 3" cx="1.72143" cy="21.3613" rx="0.721435" ry="0.854452" fill="#7F56D9"/>
<ellipse id="Ellipse 4" cx="36.8311" cy="21.3613" rx="0.721435" ry="0.854452" fill="#7F56D9"/>
<ellipse id="Ellipse 5" cx="39.717" cy="22.5004" rx="0.721435" ry="0.854452" fill="#7F56D9"/>
<ellipse id="Ellipse 6" cx="39.717" cy="32.4692" rx="0.721435" ry="0.854452" fill="#7F56D9"/>
<path id="Ellipse 2" d="M1 21.3614C1 27.0268 2.92554 32.4601 6.35302 36.4661C9.7805 40.4721 14.4292 42.7227 19.2763 42.7227C24.1235 42.7227 28.7722 40.4721 32.1997 36.4661C35.6271 32.4601 37.5527 27.0268 37.5527 21.3614L36.0906 21.3614C36.0906 26.5735 34.3191 31.5722 31.1658 35.2577C28.0125 38.9433 23.7358 41.0138 19.2763 41.0138C14.8169 41.0138 10.5402 38.9433 7.38688 35.2577C4.2336 31.5722 2.46211 26.5735 2.46211 21.3614L1 21.3614Z" fill="#7F56D9"/>
</g>
</svg>
