<svg width="40" height="24" viewBox="0 0 40 24" fill="none" xmlns="http://www.w3.org/2000/svg">
<g id="Cup Logo-shaded">
<g id="Union">
<path d="M1.64727 0.809277C1.64727 0.809147 1.64727 0.809407 1.64727 0.809277C1.64727 0.362326 1.35262 0 0.989141 0C0.625663 0 0.331007 0.362326 0.331007 0.809277C0.331007 0.809147 0.331007 0.809407 0.331007 0.809277C0.331007 6.17512 2.08759 11.3216 5.21433 15.1158C8.34108 18.91 12.5818 21.0416 17.0037 21.0416C21.4256 21.0416 25.6664 18.91 28.7931 15.1158C31.9199 11.3216 33.6765 6.17551 33.6765 0.809669C33.6765 0.809539 33.6765 0.809799 33.6765 0.809669C33.6765 0.362719 33.3816 0 33.0181 0C32.6547 0 32.36 0.362326 32.36 0.809277C32.36 0.809147 32.36 0.809407 32.36 0.809277L32.3426 0.809669C32.3426 5.74624 30.7266 10.4806 27.85 13.9713C24.9734 17.462 21.0719 19.423 17.0037 19.423C12.9356 19.423 9.03409 17.462 6.15749 13.9713C3.28088 10.4806 1.66482 5.74624 1.66482 0.809665L1.64727 0.809277Z" fill="url(#paint0_linear_1026_409)"/>
<path d="M3.40228 0.279923C2.97715 0.279923 2.63252 0.637731 2.63252 1.07911C2.63252 1.52049 2.97715 1.8783 3.40228 1.8783L30.6051 1.8783C31.0303 1.8783 31.3749 1.52049 31.3749 1.07911C31.3749 0.637733 31.0303 0.279925 30.6051 0.279925L3.40228 0.279923Z" fill="url(#paint1_linear_1026_409)"/>
<path d="M0.769785 22.4001C0.344658 22.4001 1.37036e-05 22.7579 4.08388e-10 23.1993C-1.37028e-05 23.6406 0.344609 23.9985 0.769736 23.9985L33.2377 24C33.6628 24 34.0074 23.6422 34.0075 23.2009C34.0075 22.7595 33.6628 22.4016 33.2377 22.4016L0.769785 22.4001Z" fill="url(#paint2_linear_1026_409)"/>
<path d="M35.7303 1.08494C36.2472 1.11441 36.7566 1.25335 37.2357 1.4962C37.7789 1.77163 38.2726 2.17533 38.6884 2.68426C39.1042 3.19319 39.4341 3.79737 39.6591 4.46232C39.8842 5.12726 40 5.83994 40 6.55968C40 7.27941 39.8842 7.99209 39.6591 8.65704C39.4341 9.32198 39.1042 9.92617 38.6884 10.4351C38.2726 10.944 37.7789 11.3477 37.2356 11.6232C36.8437 11.8219 36.4315 11.951 36.0114 12.0075C35.9079 12.091 35.784 12.1396 35.6509 12.1396C35.2874 12.1396 34.9928 11.7773 34.9928 11.3303C34.9928 10.9376 35.2202 10.6103 35.522 10.5366V10.4509C35.9395 10.4509 36.353 10.3503 36.7387 10.1547C37.1244 9.95919 37.4749 9.67256 37.7702 9.31122C38.0654 8.94988 38.2996 8.52091 38.4594 8.0488C38.6191 7.57669 38.7014 7.07069 38.7014 6.55968C38.7014 6.04867 38.6191 5.54266 38.4594 5.07055C38.2996 4.59844 38.0654 4.16947 37.7702 3.80813C37.4749 3.44679 37.1244 3.16016 36.7387 2.96461C36.4334 2.80984 36.1108 2.71451 35.7825 2.68149C35.74 2.69209 35.696 2.69766 35.6509 2.69766C35.2874 2.69766 34.9928 2.33534 34.9928 1.88839C34.9928 1.49569 35.2202 1.16831 35.522 1.09463V1.07901C35.5534 1.07901 35.5848 1.07941 35.6161 1.08022C35.6276 1.07948 35.6392 1.07911 35.6509 1.07911C35.6778 1.07911 35.7043 1.08109 35.7303 1.08494Z" fill="url(#paint3_linear_1026_409)"/>
</g>
</g>
<defs>
<linearGradient id="paint0_linear_1026_409" x1="20" y1="-9.01618e-09" x2="19.8185" y2="34.3894" gradientUnits="userSpaceOnUse">
<stop stop-color="#21C45D"/>
<stop offset="1" stop-color="#7C3BED"/>
</linearGradient>
<linearGradient id="paint1_linear_1026_409" x1="20" y1="-9.01618e-09" x2="19.8185" y2="34.3894" gradientUnits="userSpaceOnUse">
<stop stop-color="#21C45D"/>
<stop offset="1" stop-color="#7C3BED"/>
</linearGradient>
<linearGradient id="paint2_linear_1026_409" x1="20" y1="-9.01618e-09" x2="19.8185" y2="34.3894" gradientUnits="userSpaceOnUse">
<stop stop-color="#21C45D"/>
<stop offset="1" stop-color="#7C3BED"/>
</linearGradient>
<linearGradient id="paint3_linear_1026_409" x1="20" y1="-9.01618e-09" x2="19.8185" y2="34.3894" gradientUnits="userSpaceOnUse">
<stop stop-color="#21C45D"/>
<stop offset="1" stop-color="#7C3BED"/>
</linearGradient>
</defs>
</svg>
