<svg width="18" height="18" viewBox="0 0 18 18" fill="none" xmlns="http://www.w3.org/2000/svg">
<g id="Dashboard">
<path id="Icon" d="M15.75 15.75H3.45C3.02996 15.75 2.81994 15.75 2.65951 15.6683C2.51839 15.5964 2.40365 15.4816 2.33175 15.3405C2.25 15.1801 2.25 14.97 2.25 14.55V2.25M15 11.25L12.0608 8.11301C11.9495 7.99412 11.8938 7.93468 11.8266 7.90395C11.7673 7.87684 11.7019 7.86565 11.637 7.8715C11.5634 7.87813 11.4911 7.91567 11.3465 7.99074L8.90349 9.25926C8.7589 9.33433 8.68661 9.37187 8.61303 9.3785C8.54808 9.38435 8.48273 9.37317 8.42343 9.34605C8.35624 9.31532 8.30054 9.25588 8.18915 9.13699L5.25 6" stroke="#27272A" stroke-linecap="round" stroke-linejoin="round"/>
</g>
</svg>
