<svg width="26" height="28" viewBox="0 0 26 28" fill="none" xmlns="http://www.w3.org/2000/svg">
<g id="elements">
<path id="Rectangle 2173" d="M14.2499 1.50049H14.5908C18.6673 1.50049 20.7055 1.50049 22.121 2.49778C22.5266 2.78352 22.8867 3.12239 23.1903 3.5041C24.2499 4.83633 24.2499 6.75469 24.2499 10.5914V13.7732C24.2499 17.4772 24.2499 19.3292 23.6637 20.8083C22.7214 23.1862 20.7285 25.0619 18.2019 25.9488C16.6303 26.5005 14.6626 26.5005 10.7272 26.5005C8.47832 26.5005 7.3539 26.5005 6.45585 26.1852C5.01212 25.6784 3.87332 24.6066 3.33483 23.2478C2.99988 22.4026 2.99988 21.3443 2.99988 19.2278V14.0005" stroke="#A1A1AA" stroke-width="2" stroke-linecap="round" stroke-linejoin="round"/>
<path id="Vector" d="M24.25 14C24.25 16.3012 22.3845 18.1667 20.0833 18.1667C19.2511 18.1667 18.27 18.0208 17.4608 18.2377C16.7419 18.4303 16.1803 18.9919 15.9877 19.7108C15.7708 20.52 15.9167 21.5011 15.9167 22.3333C15.9167 24.6345 14.0512 26.5 11.75 26.5" stroke="#A1A1AA" stroke-width="2" stroke-linecap="round" stroke-linejoin="round"/>
<path id="Vector_2" d="M11.75 6.50049L1.75 6.50049M6.75 1.50049V11.5005" stroke="#A1A1AA" stroke-width="2" stroke-linecap="round"/>
</g>
</svg>
