<svg width="18" height="18" viewBox="0 0 18 18" fill="none" xmlns="http://www.w3.org/2000/svg">
<g id="Materials">
<path id="Icon" d="M9.375 1.5H11.4C12.6601 1.5 13.2902 1.5 13.7715 1.74524C14.1948 1.96095 14.539 2.30516 14.7548 2.72852C15 3.20982 15 3.83988 15 5.1V12.9C15 14.1601 15 14.7902 14.7548 15.2715C14.539 15.6948 14.1948 16.039 13.7715 16.2548C13.2902 16.5 12.6601 16.5 11.4 16.5H6.6C5.33988 16.5 4.70982 16.5 4.22852 16.2548C3.80516 16.039 3.46095 15.6948 3.24524 15.2715C3 14.7902 3 14.1601 3 12.9V12.375M12 9.75H8.625M12 6.75H9.375M12 12.75H6M4.5 7.5V3.375C4.5 2.75368 5.00368 2.25 5.625 2.25C6.24632 2.25 6.75 2.75368 6.75 3.375V7.5C6.75 8.74264 5.74264 9.75 4.5 9.75C3.25736 9.75 2.25 8.74264 2.25 7.5V4.5" stroke="black" stroke-linecap="round" stroke-linejoin="round"/>
</g>
</svg>
