<svg width="17" height="16" viewBox="0 0 17 16" fill="none" xmlns="http://www.w3.org/2000/svg">
<g id="search">
<path id="Shape" fill-rule="evenodd" clip-rule="evenodd" d="M6.20213 2C3.97998 2 2.17857 3.79086 2.17857 6C2.17857 8.2091 3.97998 10 6.20213 10C8.42424 10 10.2257 8.2091 10.2257 6C10.2257 3.79086 8.42424 2 6.20213 2ZM0.166748 6C0.166748 2.68629 2.86886 0 6.20209 0C9.5353 0 12.2374 2.68629 12.2374 6C12.2374 7.29583 11.8242 8.4957 11.1216 9.4765L15.9664 14.2929C16.3592 14.6834 16.3592 15.3166 15.9664 15.7071C15.5736 16.0976 14.9366 16.0976 14.5438 15.7071L9.69906 10.8907C8.71248 11.5892 7.50555 12 6.20209 12C2.86886 12 0.166748 9.3137 0.166748 6Z" fill="#747474"/>
</g>
</svg>
