<svg width="18" height="18" viewBox="0 0 18 18" fill="none" xmlns="http://www.w3.org/2000/svg">
<g id="thumbs-down">
<path id="Icon" d="M13.0935 1.5V9.75M16.8435 7.35V3.9C16.8435 3.05992 16.8435 2.63988 16.6801 2.31901C16.5362 2.03677 16.3068 1.8073 16.0245 1.66349C15.7037 1.5 15.2836 1.5 14.4435 1.5H6.43205C5.33594 1.5 4.78789 1.5 4.34523 1.70058C3.95509 1.87735 3.62352 2.16182 3.38947 2.52054C3.12392 2.92755 3.04059 3.46923 2.87392 4.55259L2.48161 7.10259C2.26178 8.53148 2.15186 9.24593 2.3639 9.80184C2.55 10.2898 2.90003 10.6978 3.35399 10.9559C3.87119 11.25 4.59404 11.25 6.03975 11.25H6.64355C7.06359 11.25 7.2736 11.25 7.43404 11.3317C7.57516 11.4037 7.6899 11.5184 7.7618 11.6595C7.84355 11.8199 7.84355 12.03 7.84355 12.45V14.6506C7.84355 15.672 8.67154 16.5 9.69292 16.5C9.93654 16.5 10.1573 16.3565 10.2563 16.1339L12.7768 10.4626C12.8915 10.2047 12.9488 10.0757 13.0394 9.98114C13.1195 9.89755 13.2178 9.83363 13.3268 9.79439C13.45 9.75 13.5911 9.75 13.8734 9.75H14.4435C15.2836 9.75 15.7037 9.75 16.0245 9.58651C16.3068 9.4427 16.5362 9.21323 16.6801 8.93099C16.8435 8.61012 16.8435 8.19008 16.8435 7.35Z" stroke="#52525B" stroke-linecap="round" stroke-linejoin="round"/>
</g>
</svg>
